<svg width="145" height="132" viewBox="0 0 145 132" fill="none" xmlns="http://www.w3.org/2000/svg">
<path d="M5 44C5 41.2386 7.23858 39 10 39H45C72.6142 39 95 61.3858 95 89V124C95 126.761 92.7614 129 90 129H55C27.3858 129 5 106.614 5 79V44Z" fill="#20B1C6"/>
<path d="M59.24 46.08C59.24 36.8533 60.8933 29.6267 64.2 24.4C67.56 19.1733 73.1067 16.56 80.84 16.56C88.5733 16.56 94.0933 19.1733 97.4 24.4C100.76 29.6267 102.44 36.8533 102.44 46.08C102.44 55.36 100.76 62.64 97.4 67.92C94.0933 73.2 88.5733 75.84 80.84 75.84C73.1067 75.84 67.56 73.2 64.2 67.92C60.8933 62.64 59.24 55.36 59.24 46.08ZM91.4 46.08C91.4 42.1333 91.1333 38.8267 90.6 36.16C90.12 33.44 89.1067 31.2267 87.56 29.52C86.0667 27.8133 83.8267 26.96 80.84 26.96C77.8533 26.96 75.5867 27.8133 74.04 29.52C72.5467 31.2267 71.5333 33.44 71 36.16C70.52 38.8267 70.28 42.1333 70.28 46.08C70.28 50.1333 70.52 53.5467 71 56.32C71.48 59.04 72.4933 61.2533 74.04 62.96C75.5867 64.6133 77.8533 65.44 80.84 65.44C83.8267 65.44 86.0933 64.6133 87.64 62.96C89.1867 61.2533 90.2 59.04 90.68 56.32C91.16 53.5467 91.4 50.1333 91.4 46.08ZM109.599 28V17.68H128.879V76H117.359V28H109.599Z" fill="#333333"/>
</svg>
