<svg width="145" height="132" viewBox="0 0 145 132" fill="none" xmlns="http://www.w3.org/2000/svg">
<path d="M5 44C5 41.2386 7.23858 39 10 39H45C72.6142 39 95 61.3858 95 89V124C95 126.761 92.7614 129 90 129H55C27.3858 129 5 106.614 5 79V44Z" fill="#FD8330"/>
<path d="M50.24 46.08C50.24 36.8533 51.8933 29.6267 55.2 24.4C58.56 19.1733 64.1067 16.56 71.84 16.56C79.5733 16.56 85.0933 19.1733 88.4 24.4C91.76 29.6267 93.44 36.8533 93.44 46.08C93.44 55.36 91.76 62.64 88.4 67.92C85.0933 73.2 79.5733 75.84 71.84 75.84C64.1067 75.84 58.56 73.2 55.2 67.92C51.8933 62.64 50.24 55.36 50.24 46.08ZM82.4 46.08C82.4 42.1333 82.1333 38.8267 81.6 36.16C81.12 33.44 80.1067 31.2267 78.56 29.52C77.0667 27.8133 74.8267 26.96 71.84 26.96C68.8533 26.96 66.5867 27.8133 65.04 29.52C63.5467 31.2267 62.5333 33.44 62 36.16C61.52 38.8267 61.28 42.1333 61.28 46.08C61.28 50.1333 61.52 53.5467 62 56.32C62.48 59.04 63.4933 61.2533 65.04 62.96C66.5867 64.6133 68.8533 65.44 71.84 65.44C74.8267 65.44 77.0933 64.6133 78.64 62.96C80.1867 61.2533 81.2 59.04 81.68 56.32C82.16 53.5467 82.4 50.1333 82.4 46.08ZM105.479 63.36C110.599 59.0933 114.679 55.5467 117.719 52.72C120.759 49.84 123.292 46.8533 125.319 43.76C127.345 40.6667 128.359 37.6267 128.359 34.64C128.359 31.92 127.719 29.7867 126.439 28.24C125.159 26.6933 123.185 25.92 120.519 25.92C117.852 25.92 115.799 26.8267 114.359 28.64C112.919 30.4 112.172 32.8267 112.119 35.92H101.239C101.452 29.52 103.345 24.6667 106.919 21.36C110.545 18.0533 115.132 16.4 120.679 16.4C126.759 16.4 131.425 18.0267 134.679 21.28C137.932 24.48 139.559 28.72 139.559 34C139.559 38.16 138.439 42.1333 136.199 45.92C133.959 49.7067 131.399 53.0133 128.519 55.84C125.639 58.6133 121.879 61.9733 117.239 65.92H140.839V75.2H101.319V66.88L105.479 63.36Z" fill="#333333"/>
</svg>
