<svg width="145" height="132" viewBox="0 0 145 132" fill="none" xmlns="http://www.w3.org/2000/svg">
<path d="M5 44C5 41.2386 7.23858 39 10 39H45C72.6142 39 95 61.3858 95 89V124C95 126.761 92.7614 129 90 129H55C27.3858 129 5 106.614 5 79V44Z" fill="#40B61B"/>
<path d="M49.24 46.08C49.24 36.8533 50.8933 29.6267 54.2 24.4C57.56 19.1733 63.1067 16.56 70.84 16.56C78.5733 16.56 84.0933 19.1733 87.4 24.4C90.76 29.6267 92.44 36.8533 92.44 46.08C92.44 55.36 90.76 62.64 87.4 67.92C84.0933 73.2 78.5733 75.84 70.84 75.84C63.1067 75.84 57.56 73.2 54.2 67.92C50.8933 62.64 49.24 55.36 49.24 46.08ZM81.4 46.08C81.4 42.1333 81.1333 38.8267 80.6 36.16C80.12 33.44 79.1067 31.2267 77.56 29.52C76.0667 27.8133 73.8267 26.96 70.84 26.96C67.8533 26.96 65.5867 27.8133 64.04 29.52C62.5467 31.2267 61.5333 33.44 61 36.16C60.52 38.8267 60.28 42.1333 60.28 46.08C60.28 50.1333 60.52 53.5467 61 56.32C61.48 59.04 62.4933 61.2533 64.04 62.96C65.5867 64.6133 67.8533 65.44 70.84 65.44C73.8267 65.44 76.0933 64.6133 77.64 62.96C79.1867 61.2533 80.2 59.04 80.68 56.32C81.16 53.5467 81.4 50.1333 81.4 46.08ZM101.119 33.04C101.385 27.7067 103.252 23.6 106.719 20.72C110.239 17.7867 114.852 16.32 120.559 16.32C124.452 16.32 127.785 17.0133 130.559 18.4C133.332 19.7333 135.412 21.5733 136.799 23.92C138.239 26.2133 138.959 28.8267 138.959 31.76C138.959 35.12 138.079 37.9733 136.319 40.32C134.612 42.6133 132.559 44.16 130.159 44.96V45.28C133.252 46.24 135.652 47.9467 137.359 50.4C139.119 52.8533 139.999 56 139.999 59.84C139.999 63.04 139.252 65.8933 137.759 68.4C136.319 70.9067 134.159 72.88 131.279 74.32C128.452 75.7067 125.039 76.4 121.039 76.4C115.012 76.4 110.105 74.88 106.319 71.84C102.532 68.8 100.532 64.32 100.319 58.4H111.199C111.305 61.0133 112.185 63.12 113.839 64.72C115.545 66.2667 117.865 67.04 120.799 67.04C123.519 67.04 125.599 66.2933 127.039 64.8C128.532 63.2533 129.279 61.28 129.279 58.88C129.279 55.68 128.265 53.3867 126.239 52C124.212 50.6133 121.065 49.92 116.799 49.92H114.479V40.72H116.799C124.372 40.72 128.159 38.1867 128.159 33.12C128.159 30.8267 127.465 29.04 126.079 27.76C124.745 26.48 122.799 25.84 120.239 25.84C117.732 25.84 115.785 26.5333 114.399 27.92C113.065 29.2533 112.292 30.96 112.079 33.04H101.119Z" fill="#333333"/>
</svg>
