<svg width="15" height="10" viewBox="0 0 15 10" fill="none" xmlns="http://www.w3.org/2000/svg">
<path fill-rule="evenodd" clip-rule="evenodd" d="M15 4.8218C15 4.96387 14.9436 5.10012 14.8431 5.20058C14.7426 5.30104 14.6064 5.35748 14.4643 5.35748L1.82977 5.35748L5.20134 8.72798C5.30193 8.82856 5.35843 8.96499 5.35843 9.10724C5.35843 9.24949 5.30193 9.38591 5.20134 9.4865C5.10075 9.58709 4.96433 9.64359 4.82208 9.64359C4.67983 9.64359 4.5434 9.58709 4.44282 9.4865L0.157375 5.20106C0.10749 5.1513 0.0679121 5.09219 0.0409069 5.02711C0.0139017 4.96203 0 4.89226 0 4.8218C0 4.75134 0.0139017 4.68157 0.0409069 4.61649C0.0679121 4.55141 0.10749 4.4923 0.157375 4.44254L4.44282 0.157095C4.5434 0.0565087 4.67983 -3.35154e-09 4.82208 0C4.96433 3.35154e-09 5.10075 0.0565087 5.20134 0.157095C5.30193 0.257682 5.35843 0.394106 5.35843 0.536357C5.35843 0.678607 5.30193 0.815032 5.20134 0.915618L1.82977 4.28612L14.4643 4.28612C14.6064 4.28612 14.7426 4.34256 14.8431 4.44302C14.9436 4.54347 15 4.67973 15 4.8218Z" fill="#333333"/>
</svg>
