<svg width="132" height="25" viewBox="0 0 132 25" fill="none" xmlns="http://www.w3.org/2000/svg">
<path d="M42.8639 18.9179C39.6319 18.9179 37.0122 16.2599 37.0122 12.9806C37.0122 9.70167 39.6319 7.04337 42.8643 7.04337C46.0962 7.04337 48.7155 9.70167 48.7155 12.9806C48.7155 16.2599 46.0962 18.9179 42.8643 18.9179H42.8639ZM48.7343 19.6708C48.7343 20.2147 49.6729 21.742 50.823 21.742H51.5678C51.8567 21.742 52.0927 21.5073 52.0927 21.221V4.97264H52.09C52.0828 4.83985 52.0247 4.71484 51.9276 4.6232C51.8305 4.53157 51.7018 4.48026 51.5678 4.47977H49.2599C48.9807 4.47977 48.7527 4.6992 48.737 4.97264H48.7343V6.29304C47.3206 4.5642 45.0909 3.84657 42.8551 3.84657C37.7731 3.84657 33.6538 7.93594 33.6538 12.981C33.6538 18.0261 37.7731 22.1154 42.8551 22.1154C45.0909 22.1154 47.5275 21.2544 48.7343 19.669V19.6716V19.6708ZM57.6072 17.3442C59.1477 18.4033 60.8296 18.9179 62.4455 18.9179C63.9857 18.9179 65.5767 18.1253 65.5767 16.7463C65.5767 14.9057 62.1084 14.6189 59.9296 13.8838C57.7497 13.1487 55.8725 11.6287 55.8725 9.16735C55.8725 5.40162 59.2531 3.84619 62.4084 3.84619C64.4075 3.84619 66.4698 4.50031 67.8072 5.43813C68.2681 5.7842 67.9873 6.18237 67.9873 6.18237L66.7107 7.99184C66.5675 8.19568 66.2702 8.35845 65.9564 8.15119C65.0963 7.58682 64.1385 7.04299 62.408 7.04299C60.266 7.04299 59.3239 7.92567 59.3239 9.01941C59.3239 10.3314 60.8307 10.7437 62.5957 11.1909C65.6721 12.0135 69.0282 13.0034 69.0282 16.7467C69.0282 20.0648 65.9012 22.1154 62.4455 22.1154C59.827 22.1154 57.5972 21.3742 55.7273 20.0124C55.338 19.6252 55.61 19.2658 55.61 19.2658L56.8801 17.4655C57.1387 17.1285 57.4643 17.2464 57.6072 17.3442ZM86.3369 19.6712C86.3369 20.2147 87.2751 21.742 88.4248 21.742H89.17C89.4588 21.742 89.6952 21.5073 89.6952 21.221V4.97264H89.6922C89.6847 4.83992 89.6266 4.71501 89.5295 4.62341C89.4325 4.53181 89.3039 4.48044 89.17 4.47977H86.8621C86.5824 4.47977 86.3549 4.6992 86.3395 4.97264H86.3369V6.29304C84.9228 4.5642 82.6931 3.84657 80.4576 3.84657C75.3756 3.84657 71.2556 7.93594 71.2556 12.9806C71.2556 18.0253 75.3756 22.115 80.4576 22.115C82.6931 22.115 85.1297 21.254 86.3365 19.6686V19.6712H86.3369ZM80.4664 18.9182C77.2341 18.9182 74.6144 16.2599 74.6144 12.9806C74.6144 9.70167 77.2341 7.04337 80.4664 7.04337C83.698 7.04337 86.3181 9.70167 86.3181 12.9806C86.3181 16.2599 83.698 18.9179 80.4664 18.9179V18.9182ZM110.373 20.2295L110.373 11.8222C110.373 7.08293 107.361 3.88536 102.557 3.88536C100.265 3.88536 98.3888 5.20158 97.7249 6.33221V6.31624L97.7211 6.32917C97.7195 5.18523 96.7847 4.51894 95.6323 4.51894H94.8914C94.6021 4.51894 94.3661 4.75397 94.3661 5.04071V21.2894H94.3692C94.3841 21.5632 94.6125 21.7827 94.8914 21.7827H97.1993C97.2345 21.7827 97.2694 21.7785 97.3027 21.7724C97.318 21.769 97.3322 21.7629 97.3471 21.7587C97.3648 21.7538 97.3824 21.7496 97.3985 21.7427C97.4195 21.7344 97.4379 21.723 97.4571 21.7123C97.4663 21.7066 97.4762 21.7028 97.4854 21.6971C97.5081 21.6817 97.5296 21.6646 97.5498 21.6461C97.5533 21.6427 97.5575 21.6404 97.5605 21.6374C97.6571 21.5461 97.7147 21.4216 97.7214 21.2894H97.7249V11.6918C97.7249 9.14643 99.8037 7.08254 102.368 7.08254C104.932 7.08254 107.012 9.14643 107.012 11.6918L107.013 19.7146L107.014 19.7115C107.014 19.7188 107.015 19.7264 107.015 19.7336V21.2894H107.018C107.034 21.5632 107.261 21.7827 107.541 21.7827H109.848C109.884 21.7827 109.918 21.7785 109.952 21.7724C109.966 21.7693 109.978 21.7636 109.991 21.7606C110.011 21.7549 110.03 21.75 110.048 21.7427C110.067 21.7351 110.084 21.7241 110.102 21.7142C110.113 21.7085 110.124 21.7039 110.135 21.6971C110.156 21.6826 110.176 21.6663 110.195 21.6496C110.2 21.6457 110.205 21.642 110.21 21.637C110.232 21.6165 110.251 21.5936 110.269 21.5701C110.329 21.4889 110.365 21.3919 110.371 21.2909L110.371 21.2894H110.374V20.2295H110.373ZM128.372 19.6712C128.372 20.2147 129.31 21.742 130.46 21.742H131.206C131.494 21.742 131.731 21.5073 131.731 21.221V4.97264H131.728C131.721 4.83988 131.662 4.71497 131.565 4.62338C131.468 4.5318 131.339 4.48043 131.206 4.47977H128.898C128.764 4.48016 128.635 4.53143 128.538 4.62307C128.441 4.71472 128.383 4.83979 128.375 4.97264H128.372V6.29304C126.958 4.5642 124.729 3.84657 122.492 3.84657C117.411 3.84657 113.291 7.93594 113.291 12.9806C113.291 18.0253 117.411 22.115 122.492 22.115C124.729 22.115 127.165 21.254 128.371 19.6686L128.372 19.6712ZM122.502 18.9182C119.27 18.9182 116.65 16.2599 116.65 12.9806C116.65 9.70167 119.27 7.04337 122.502 7.04337C125.733 7.04337 128.353 9.70167 128.353 12.9806C128.353 16.2599 125.733 18.9179 122.502 18.9179V18.9182Z" fill="#20B1C6"/>
<path d="M20.3156 13.2351C17.1969 13.2351 14.6692 15.8686 14.6692 19.1172C14.6692 22.366 17.1969 25 20.3156 25C23.4338 25 25.9615 22.366 25.9615 19.1172C25.9615 15.8686 23.4338 13.2351 20.3156 13.2351ZM5.64619 13.2354C2.52802 13.2357 0 15.8686 0 19.1174C0 22.366 2.52802 24.9997 5.64619 24.9997C8.76463 24.9997 11.2927 22.366 11.2927 19.1174C11.2927 15.8686 8.76463 13.2354 5.64592 13.2354H5.64619ZM18.627 5.88229C18.627 9.13085 16.0992 11.7651 12.981 11.7651C9.86233 11.7651 7.33458 9.13085 7.33458 5.88229C7.33458 2.63373 9.86233 0 12.981 0C16.0992 0 18.6267 2.63373 18.6267 5.88229H18.627Z" fill="#20B1C6"/>
</svg>
