<svg width="134" height="22" viewBox="0 0 134 22" fill="none" xmlns="http://www.w3.org/2000/svg">
<path d="M13.1695 11.3154C14.2067 11.3958 15.1083 11.8361 15.8788 12.6319C16.645 13.432 17.0302 14.5284 17.0302 15.9253C17.0302 17.6398 16.463 19.0071 15.3242 20.0273C14.1855 21.0433 12.5515 21.5555 10.4137 21.5555H0V1.49856H10.3883C12.2255 1.49856 13.6944 1.99808 14.8035 2.99711C15.9126 3.99615 16.463 5.32115 16.463 6.97633C16.463 8.2336 16.1158 9.23263 15.4174 9.96921C14.7189 10.7058 13.9696 11.1164 13.1738 11.1968V11.3154H13.1695ZM4.94016 9.78718H9.24957C9.98615 9.78718 10.5746 9.58399 11.0148 9.17337C11.4551 8.76275 11.6752 8.2209 11.6752 7.54358C11.6752 6.92553 11.4593 6.42601 11.0317 6.04503C10.6042 5.66404 10.0708 5.47778 9.4316 5.47778H4.94016V9.78718ZM9.55013 17.5721C10.329 17.5721 10.9302 17.3731 11.3619 16.9752C11.7895 16.5773 12.0054 16.0269 12.0054 15.3285C12.0054 14.6681 11.7853 14.1474 11.345 13.7579C10.9048 13.3685 10.3375 13.1738 9.63902 13.1738H4.94016V17.5721H9.55013ZM34.179 21.5513H29.3912V20.1162C28.1932 21.3735 26.6565 22 24.7812 22C23.0244 22 21.6148 21.4243 20.5438 20.2771C19.477 19.1299 18.9436 17.6186 18.9436 15.7433V6.52761H23.7018V14.7273C23.7018 15.6036 23.943 16.319 24.4214 16.8693C24.8998 17.4197 25.5178 17.6906 26.2755 17.6906C27.2534 17.6906 28.0154 17.3477 28.5657 16.6577C29.116 15.9677 29.387 14.9178 29.387 13.4997V6.52761H34.1747V21.5513H34.179ZM48.9275 21.5513H36.249V20.6496L42.2094 10.329H36.3972V6.52761H48.8555V7.42929L42.8951 17.7499H48.9275V21.5513ZM63.676 21.5513H50.9975V20.6496L56.9579 10.329H51.1414V6.52761H63.5998V7.42929L57.6394 17.7499H63.6717V21.5513H63.676ZM70.7962 10.0581H79.4574V14.3675H70.7962V21.5513H65.8561V1.49856H80.2532V5.8376H70.7962V10.0581ZM114.546 15.265H103.532C103.815 17.1276 105.208 18.1689 107.316 18.1689C108.976 18.1689 110.614 17.517 111.841 16.573L113.679 19.7564C111.998 21.1999 109.818 22 107.316 22C102.279 22 98.8328 18.9309 98.8328 14.0373C98.8328 11.7218 99.6032 9.81682 101.136 8.31826C102.672 6.8197 104.556 6.07466 106.791 6.07466C108.967 6.07466 110.792 6.80277 112.269 8.259C113.746 9.71522 114.504 11.6413 114.542 14.0373V15.265H114.546ZM104.848 10.5957C104.251 11.0148 103.841 11.5948 103.621 12.3313H109.818C109.598 11.5524 109.221 10.964 108.679 10.5661C108.142 10.1682 107.511 9.96921 106.795 9.96921C106.097 9.96921 105.449 10.1766 104.848 10.5957ZM97.0337 15.265H86.0189C86.3025 17.1276 87.6952 18.1689 89.8034 18.1689C91.4628 18.1689 93.101 17.517 94.3287 16.573L96.1659 19.7564C94.4853 21.1999 92.3052 22 89.8034 22C84.7658 22 81.32 18.9309 81.32 14.0373C81.32 11.7218 82.0904 9.81682 83.6229 8.31826C85.1595 6.8197 87.0433 6.07466 89.2784 6.07466C91.4543 6.07466 93.2788 6.80277 94.7562 8.259C96.2336 9.71522 96.9914 11.6413 97.0294 14.0373V15.265H97.0337ZM87.3354 10.5957C86.7385 11.0148 86.3279 11.5948 86.1078 12.3313H92.3052C92.0851 11.5524 91.7083 10.964 91.1665 10.5661C90.6288 10.1682 89.9981 9.96921 89.2827 9.96921C88.58 9.96921 87.9323 10.1766 87.3354 10.5957ZM133.075 21.5513H128.287V20.3533C127.068 21.4497 125.515 22 123.618 22C121.582 22 119.851 21.255 118.424 19.7691C116.998 18.2832 116.282 16.3698 116.282 14.0373C116.282 11.7218 116.998 9.81682 118.424 8.31826C119.851 6.8197 121.582 6.07466 123.618 6.07466C125.515 6.07466 127.073 6.62498 128.287 7.72138V0H133.075V21.5513ZM127.195 16.8397C127.923 16.1116 128.287 15.1803 128.287 14.0416C128.287 12.924 127.923 11.9969 127.195 11.2561C126.467 10.5195 125.604 10.147 124.605 10.147C123.546 10.147 122.678 10.5111 122.001 11.2392C121.324 11.9673 120.985 12.8986 120.985 14.0373C120.985 15.193 121.324 16.1328 122.001 16.8524C122.678 17.5721 123.546 17.9319 124.605 17.9319C125.604 17.9319 126.467 17.5678 127.195 16.8397Z" fill="#20B1C6"/>
</svg>
