<svg width="135" height="25" viewBox="0 0 135 25" fill="none" xmlns="http://www.w3.org/2000/svg">
<path fill-rule="evenodd" clip-rule="evenodd" d="M118.457 1.6081e-07C117.972 -0.000292271 117.573 0.398292 117.573 0.882851V7.07013H133.92L126.476 0.00175379L118.457 1.6081e-07ZM134.519 8.94169V8.9411C134.519 8.45801 134.121 8.0603 133.638 8.0603H127.448V24.4067L134.516 16.9605L134.519 8.94169ZM125.574 25C126.058 24.9988 126.455 24.6005 126.455 24.1166V17.9302H110.109L117.552 24.9985L125.574 25ZM109.511 16.0592V16.0595C109.511 16.5437 109.91 16.9423 110.394 16.9426H116.582V0.594806L109.512 8.03924L109.511 16.0592Z" fill="#20B1C6"/>
<path fill-rule="evenodd" clip-rule="evenodd" d="M34.5841 2.98284V10.5317H24.0659V2.98284L20.2365 2.98138V22.0152H24.0659V13.8382H34.5841V22.0152H38.4205V2.98284H34.5841ZM85.5442 2.98284V22.012L102.351 22.0111L100.221 18.6622H89.387V13.8382H99.878V10.6112H89.387V6.25457H100.203L102.29 2.98284H85.5442ZM5.99859 2.9805C2.01304 2.9805 -6.10352e-05 5.40125 -6.10352e-05 8.92652V16.0323C-6.10352e-05 20.1109 2.59264 22.0158 5.97812 22.0158L17.9942 22.0134L15.7682 18.535H6.71973C4.79845 18.535 3.96151 17.8407 3.96151 15.689V9.24322C3.96151 7.16316 4.6654 6.35136 6.77091 6.35136H15.8626L18.0012 2.98079L5.99859 2.9805ZM68.7343 2.97494C66.4317 2.97494 64.075 4.35727 64.075 7.91529V8.82943C64.075 12.5363 66.3448 13.9528 68.6141 13.9634H76.5846C77.4122 13.9634 78.0851 14.1002 78.0851 15.5001L78.0842 17.1178C78.0635 18.3721 77.4347 18.6622 76.5563 18.6622H66.0714L63.9235 22.0108H76.8013C79.9087 22.0108 82.0168 20.4665 82.0168 16.8959V15.5843C82.0168 12.133 80.0584 10.5042 77.0204 10.5042H69.4104C68.5659 10.5042 67.979 10.2726 67.979 9.02302L67.9778 7.70737C67.9778 6.64321 68.3822 6.25457 69.3651 6.25457L79.3496 6.25077L81.4372 2.97144L68.7343 2.97494ZM49.5514 2.98576L40.5257 22.0134H44.792L46.5498 18.0837H56.3568L58.1091 22.0134H62.3923L53.3462 2.98547L49.5514 2.98576ZM51.4425 6.93535L54.911 14.845H47.9962L51.4425 6.93535Z" fill="#20B1C6"/>
</svg>
