<svg width="100" height="30" viewBox="0 0 100 30" fill="none" xmlns="http://www.w3.org/2000/svg">
<path d="M97.7454 23.9651C96.2779 23.9651 95.5782 22.9155 95.5782 20.8359L95.5782 6.10311C95.5782 3.98454 96.2488 2.99329 97.7454 2.99329C99.242 2.99329 99.8736 4.04285 99.8736 6.10311L99.8736 20.8359C99.8639 22.935 99.1934 23.9651 97.7454 23.9651ZM84.9271 30.0001C80.9621 30.0001 78.6006 28.5326 78.6006 26.8708C78.5811 25.8699 79.3489 25.0438 80.3498 24.9855L80.4859 24.9855C81.5646 24.9855 82.8668 26.1517 85.1117 26.1517C87.3566 26.1517 88.4937 24.8495 88.4937 22.5268C88.4937 22.3616 88.4451 22.1964 88.4451 21.9729C87.5802 23.2848 86.103 24.072 84.5384 24.0234C81.1273 24.0234 78.2993 20.8942 78.2993 16.5307C78.2993 12.1672 81.3411 8.91166 85.0048 8.91166C86.3362 8.84363 87.619 9.42672 88.4645 10.4568C88.8144 9.68911 89.5432 9.15461 90.379 9.0963C91.8464 9.0963 92.5461 10.0973 92.5461 12.2256L92.5461 20.8456C92.5461 23.4209 92.3809 25.4228 91.5452 26.8028C90.2041 28.8728 87.9592 30.0001 84.9271 30.0001ZM85.5491 12.9739C83.965 12.9739 82.7211 14.3538 82.7211 16.521C82.7211 18.6881 83.9164 20.1459 85.5491 20.1459C87.1817 20.1459 88.377 18.727 88.377 16.521C88.377 14.3052 87.1331 12.9739 85.5491 12.9739ZM68.5714 30.0001C64.6064 30.0001 62.2449 28.5326 62.2449 26.8708C62.2254 25.8699 62.9932 25.0438 63.9942 24.9855L64.1302 24.9855C65.2089 24.9855 66.5112 26.1517 68.7561 26.1517C71.001 26.1517 72.138 24.8495 72.138 22.5268C72.138 22.3616 72.0894 22.1964 72.0894 21.9729C71.2245 23.2848 69.7473 24.072 68.1827 24.0234C64.8008 24.0234 61.9436 20.8942 61.9436 16.5307C61.9436 12.1672 64.9854 8.91166 68.6492 8.91166C69.9805 8.84363 71.2633 9.42672 72.1088 10.4568C72.4587 9.68911 73.1875 9.15461 74.0233 9.0963C75.4908 9.0963 76.1905 10.0973 76.1905 12.2256L76.1905 20.8456C76.1905 23.4209 76.0253 25.4228 75.1895 26.8028C73.897 28.8728 71.6521 30.0001 68.5714 30.0001ZM69.1837 12.9739C67.5996 12.9739 66.3557 14.3538 66.3557 16.521C66.3557 18.6881 67.551 20.1459 69.1837 20.1459C70.8163 20.1459 72.0116 18.727 72.0116 16.521C72.0214 14.3052 70.7677 12.9739 69.1837 12.9739ZM53.343 24.2081C49.0962 24.2081 46.0544 20.9913 46.0544 16.5015C46.0544 12.0118 49.1351 8.79504 53.343 8.79504C57.551 8.79504 60.6317 12.0118 60.6317 16.5016C60.6317 20.9913 57.6385 24.2081 53.3916 24.2081L53.343 24.2081ZM53.343 12.8572C51.759 12.8572 50.515 14.2372 50.515 16.4821C50.515 18.727 51.7298 20.1459 53.343 20.1459C54.9563 20.1459 56.171 18.727 56.171 16.4821C56.171 14.2372 54.9271 12.8572 53.343 12.8572ZM43.3042 13.2265L42.9349 13.2265L42.9349 20.8456C42.9349 22.9253 42.2643 23.9748 40.8163 23.9748C39.3683 23.9748 38.6978 22.9253 38.6978 20.8456L38.6978 13.2265L38.5325 13.2265C36.9874 13.2265 36.1224 12.4782 36.1224 11.3412C36.1224 10.2042 37.0068 9.51418 38.6978 9.42672L38.6978 7.54139C38.6978 5.4617 39.3683 4.41214 40.8649 4.41214C42.3615 4.41214 42.9932 5.4617 42.9932 7.54139L42.9932 9.42672L43.3722 9.42672C45.0826 9.42672 46.0836 10.175 46.0836 11.3412C46.0836 12.5074 45.1409 13.2265 43.3042 13.2265Z" fill="#20B1C6"/>
<path d="M14.8105 29.621C22.9901 29.621 29.621 22.9901 29.621 14.8105C29.621 6.63089 22.9901 2.00986e-06 14.8105 1.29477e-06C6.63092 5.7969e-07 2.99379e-05 6.63088 2.92228e-05 14.8105C2.85077e-05 22.9901 6.63091 29.621 14.8105 29.621Z" fill="#20B1C6"/>
<path d="M15.8114 5.86975L13.7318 5.86975L13.7318 16.2682L15.8114 16.2682L15.8114 5.86975ZM14.7813 22.517C10.758 22.4975 7.51212 19.242 7.52184 15.2089C7.52184 11.9339 9.73759 9.04759 12.9154 8.20211L12.9154 10.3693C10.2332 11.3994 8.90182 14.412 9.93195 17.0942C10.9621 19.7765 13.9747 21.1078 16.6569 20.0777C19.3391 19.0476 20.6705 16.035 19.6404 13.3527C19.1059 11.9922 18.0272 10.9038 16.6569 10.3693L16.6569 8.20211C20.5345 9.25168 22.8474 13.2458 21.7978 17.1234C20.9426 20.3012 18.0563 22.4975 14.7813 22.517Z" fill="white"/>
</svg>
