<svg width="137" height="33" viewBox="0 0 137 33" fill="none" xmlns="http://www.w3.org/2000/svg">
<path fill-rule="evenodd" clip-rule="evenodd" d="M0 6.92574C0 6.92574 3.40018 20.8588 3.94285 23.1202C4.57623 25.76 5.71749 26.7313 9.00771 26.0762L11.1309 17.4378C11.6689 15.292 12.0299 13.7624 12.3759 11.5796H12.4368C12.6797 13.7839 13.0257 15.2985 13.4687 17.4456C13.4687 17.4456 14.3329 21.367 14.7755 23.4268C15.2194 25.486 16.4542 26.7835 19.6773 26.0771L24.7363 6.92729H20.6518L18.9246 15.2066C18.4602 17.6168 18.039 19.4995 17.7141 21.7044H17.6563C17.3612 19.5216 16.9857 17.7134 16.5135 15.365L14.7153 6.92698H10.4596L8.53617 15.1522C7.99101 17.6515 7.48157 19.6697 7.15727 21.7997H7.09856C6.76681 19.7937 6.32447 17.2574 5.84579 14.8378C5.84579 14.8378 4.70297 8.95448 4.30194 6.92698L0.000310461 6.9276L0 6.92574ZM38.9374 6.92574V26.0756H42.8262V6.9248H38.9374V6.92574ZM93.7075 6.92574V21.0527C93.7075 23.0006 94.074 24.3652 94.8584 25.199C95.5436 25.928 96.6721 26.4002 98.0243 26.4002C99.174 26.4002 100.305 26.1821 100.838 25.9836L100.788 22.9447C100.391 23.0423 99.935 23.1205 99.3109 23.1205C97.9861 23.1205 97.5419 22.2722 97.5419 20.5233V15.1183H100.929V11.4544H97.5419V6.92605H93.7071H93.7075V6.92574ZM30.2469 11.365C27.8302 11.365 25.9117 12.0437 24.8658 12.6479L25.6312 15.2684C26.5882 14.6651 28.1122 14.1653 29.5551 14.1653C31.9439 14.1594 32.3343 15.5163 32.3343 16.3863V16.5923C27.1291 16.5845 23.841 18.3859 23.841 22.0572C23.841 24.2991 25.5147 26.3999 28.4253 26.3999C30.217 26.3999 31.7152 25.6854 32.6133 24.5404H32.7015C32.7015 24.5404 33.2963 27.0271 36.5723 26.0762C36.4002 25.0412 36.3443 23.9378 36.3443 22.6089V17.4931C36.3443 14.2324 34.952 11.365 30.2469 11.365V11.3647V11.365ZM53.5092 11.365C51.076 11.365 49.9823 12.5982 49.3191 13.6444H49.2613V11.6896H45.5502V26.0762H49.4595V17.6391C49.4595 17.2434 49.5048 16.8253 49.6427 16.4615C49.9667 15.6119 50.757 14.6182 52.0188 14.6182C53.5962 14.6182 54.3345 15.9518 54.3345 17.8768V26.0762H58.2398V17.5369C58.2398 17.1595 58.2917 16.7044 58.4029 16.3708C58.7241 15.4044 59.5761 14.6182 60.7491 14.6182C62.3482 14.6182 63.1158 15.9288 63.1158 18.1936V26.0762H67.0238V17.6031C67.0238 13.1343 64.7547 11.3653 62.1935 11.3653C61.0591 11.3653 60.1638 11.6498 59.3543 12.1465C58.6737 12.564 58.0649 13.1573 57.5325 13.9383H57.4747C56.8553 12.3879 55.4022 11.365 53.5089 11.365L53.5095 11.3647L53.5092 11.365ZM74.9773 11.365C72.5609 11.365 70.643 12.0437 69.5965 12.6479L70.3628 15.2684C71.319 14.6651 72.8438 14.1653 74.2861 14.1653C76.6733 14.1594 77.065 15.5163 77.065 16.3863V16.5923C71.8604 16.5845 68.5717 18.3859 68.5717 22.0572C68.5717 24.2991 70.2464 26.3999 73.1585 26.3999C74.9487 26.3999 76.4478 25.6854 77.344 24.5404H77.4325C77.4325 24.5404 78.0271 27.0271 81.3039 26.0762C81.1315 25.0412 81.0762 23.9378 81.0762 22.6089V17.4931C81.0762 14.2324 79.6837 11.365 74.9779 11.365V11.3647L74.9773 11.365ZM91.2125 11.365C89.7155 11.365 88.0123 12.3314 87.2973 14.403H87.1879V11.6896H83.6688V26.0762H87.6806V18.7093C87.6806 18.312 87.7048 17.9653 87.7676 17.6478C88.0642 16.1046 89.2446 15.118 90.9385 15.118C91.4035 15.118 91.7365 15.1684 92.0965 15.2202V11.4541C91.7946 11.3932 91.588 11.365 91.2125 11.365L91.2122 11.3653L91.2125 11.365ZM32.4601 19.1417V20.9365C32.4601 21.2021 32.4371 21.4757 32.3632 21.7152C32.0622 22.7121 31.0297 23.5545 29.739 23.5545C28.6626 23.5545 27.8078 22.9438 27.8078 21.6516C27.8078 19.675 29.9835 19.1289 32.4601 19.1417ZM77.1905 19.1417V20.9365C77.1905 21.2021 77.1669 21.4757 77.0939 21.7152C76.7929 22.7121 75.7607 23.5545 74.4697 23.5545C73.393 23.5545 72.5382 22.9438 72.5382 21.6516C72.5382 19.675 74.7139 19.1289 77.1905 19.1417H77.1902H77.1905Z" fill="#20B1C6"/>
<path fill-rule="evenodd" clip-rule="evenodd" d="M121.955 0C120.699 0 119.701 0.701098 119.701 1.55472L120.464 10.1881C120.548 10.7081 121.185 11.1094 121.955 11.1094C122.727 11.1082 123.362 10.7075 123.448 10.1881L124.214 1.55472C124.214 0.701098 123.213 0.000308092 121.956 0.000308092L121.955 0ZM109.53 6.92523C108.878 6.94077 108.138 7.43405 107.667 8.2507C107.037 9.33791 107.149 10.5531 107.886 10.9796L115.742 14.6385C116.233 14.8212 116.9 14.4723 117.286 13.807V13.8067C117.674 13.1379 117.644 12.3858 117.236 12.0525L110.139 7.07526C109.955 6.96841 109.748 6.92026 109.53 6.92554H109.53V6.92523ZM134.379 6.92523C134.162 6.91995 133.955 6.9681 133.771 7.07464L126.674 12.0519C126.268 12.3852 126.238 13.1376 126.624 13.806L126.624 13.8064C127.012 14.4717 127.676 14.8203 128.167 14.6379L136.028 10.979C136.768 10.5528 136.874 9.3376 136.248 8.25008C135.775 7.43374 135.033 6.94014 134.382 6.92461H134.379V6.92523ZM116.036 18.3155C115.934 18.3142 115.836 18.3301 115.743 18.3646L107.887 22.0192C107.15 22.4472 107.038 23.6627 107.668 24.7512C108.296 25.8362 109.402 26.3522 110.14 25.9266L117.237 20.9534C117.645 20.6157 117.675 19.864 117.287 19.1958L117.29 19.1974C116.977 18.6531 116.476 18.3214 116.036 18.3155ZM127.877 18.3155C127.437 18.3214 126.938 18.6531 126.623 19.1977L126.626 19.1961C126.24 19.8643 126.27 20.616 126.676 20.9537L133.773 25.9269C134.509 26.3525 135.616 25.8365 136.247 24.7515C136.873 23.663 136.767 22.4475 136.027 22.0192L128.169 18.3646C128.076 18.3298 127.978 18.3142 127.877 18.3155V18.3152L127.877 18.3155ZM121.954 21.8937C121.184 21.8946 120.549 22.2941 120.465 22.8128L119.702 31.4456C119.702 32.3005 120.7 33 121.956 33C123.213 33 124.213 32.3001 124.213 31.4456L123.449 22.8128C123.363 22.2941 122.729 21.8946 121.957 21.8937H121.954H121.954Z" fill="#20B1C6"/>
</svg>
